<svg xml:space="preserve" viewBox="0 0 100 100" y="0" x="0" xmlns="http://www.w3.org/2000/svg" id="圖層_1" version="1.1" preserveAspectRatio="xMidYMid" width="50" height="50" xmlns:xlink="http://www.w3.org/1999/xlink" style="margin-top:0px;margin-right:0px;margin-bottom:0px;margin-left:0px;display:block;shape-rendering:auto;background-position-x:0%;background-position-y:0%;background-size:auto;background-origin:padding-box;background-clip:border-box;background:scroll rgba(0, 0, 0, 0) none  repeat;width:50px;height:50px;;animation:none"><g class="ldl-scale" style="transform-origin:50px 50px;transform:matrix(1, 0, 0, 1, 0, 0);;animation:none"><g class="ldl-ani"><g class="ldl-layer"><g class="ldl-ani" style="transform-origin:50px 50px;transform:matrix(0.91, 0, 0, 0.91, 0, 0);animation-duration:1s;animation-timing-function:linear;animation-delay:-1s;animation-iteration-count:infinite;animation-direction:normal;animation-fill-mode:forwards;animation-play-state:paused;animation-name:animate;animation-timeline:auto;animation-range-start:normal;animation-range-end:normal;transform-box:view-box;;animation:none"><path fill="#f8b26a" d="M88.4 45.9c1.4-1.4 1.9-3.4 1.3-5.3-.6-1.9-2.2-3.3-4.2-3.5l-20.6-3c-.5-.1-.9-.4-1.1-.8l-9.2-18.7c-.9-1.8-2.7-2.9-4.7-2.9s-3.8 1.1-4.7 2.9L36 33.3c-.2.4-.6.7-1.1.8l-20.6 3c-2 .3-3.6 1.6-4.2 3.5-.6 1.9-.1 3.9 1.3 5.3l14.9 14.5c.3.3.5.8.4 1.2l-3.5 20.5c-.3 2 .5 3.9 2.1 5.1.9.7 2 1 3.1 1 .8 0 1.7-.2 2.4-.6L49.3 78c.2-.1.4-.2.7-.2.2 0 .5.1.7.2l18.4 9.7c.8.4 1.6.6 2.4.6 1.1 0 2.1-.3 3.1-1 1.6-1.2 2.4-3.1 2.1-5.1l-3.5-20.5c-.1-.5.1-.9.4-1.2l14.8-14.6zm-19 16.4l3.5 20.5c.1.8-.3 1.2-.6 1.4s-.8.5-1.5.1l-18.4-9.7c-.7-.4-1.6-.6-2.4-.6s-1.7.2-2.4.6l-18.4 9.7c-.7.4-1.3 0-1.5-.1-.2-.2-.7-.6-.6-1.4l3.5-20.5c.3-1.7-.3-3.4-1.5-4.6L14.2 43.2c-.6-.5-.4-1.2-.4-1.4.1-.2.4-.8 1.1-1l20.6-3a4.9 4.9 0 0 0 3.9-2.9l9.2-18.7c.3-.7 1-.8 1.3-.8.3 0 .9.1 1.3.8L60.5 35c.8 1.5 2.2 2.6 3.9 2.9l20.6 3c.8.1 1.1.7 1.1 1 .1.2.2.9-.4 1.4L70.9 57.7c-1.3 1.2-1.8 2.9-1.5 4.6z" style="stroke-width:0.5px;fill:rgb(255, 51, 0);;animation:none"></path></g></g>
<metadata xmlns:d="https://loading.io/stock/"></metadata></g></g>
<STYLE type="text/css">@keyframes animate { 0.00% {transform: translate(0.00px,0.00px) rotate(0.00deg) scale(0.91, 0.91) skew(0deg, 0.00deg) ;opacity: 1.00;}4.00% {transform: translate(0.00px,0.00px) rotate(0.00deg) scale(0.91, 0.91) ;}8.00% {animation-timing-function: cubic-bezier(0.69,0.60,0.35,0.27);transform: translate(0.00px,0.00px) rotate(0.00deg) scale(0.91, 0.91) ;}14.00% {transform: translate(0.00px,0.00px) rotate(0.00deg) scale(0.93, 0.93) ;}18.00% {transform: translate(0.00px,0.00px) rotate(0.00deg) scale(0.94, 0.94) ;}22.00% {animation-timing-function: cubic-bezier(0.67,0.66,0.34,0.33);transform: translate(0.00px,0.00px) rotate(0.00deg) scale(0.96, 0.96) ;}26.00% {transform: translate(0.00px,0.00px) rotate(0.00deg) scale(0.97, 0.97) ;}30.00% {transform: translate(0.00px,0.00px) rotate(0.00deg) scale(0.99, 0.99) ;}34.00% {animation-timing-function: cubic-bezier(0.65,0.71,0.32,0.38);transform: translate(0.00px,0.00px) rotate(0.00deg) scale(1.01, 1.01) ;}40.00% {animation-timing-function: cubic-bezier(0.64,0.74,0.31,0.41);transform: translate(0.00px,0.00px) rotate(0.00deg) scale(1.02, 1.02) ;}46.00% {animation-timing-function: cubic-bezier(0.60,0.91,0.23,0.63);transform: translate(0.00px,0.00px) rotate(0.00deg) scale(1.03, 1.03) ;}50.00% {transform: translate(0.00px,0.00px) rotate(0.00deg) scale(1.03, 1.03) ;}54.00% {transform: translate(0.00px,0.00px) rotate(0.00deg) scale(1.03, 1.03) ;}58.00% {animation-timing-function: cubic-bezier(0.69,0.60,0.35,0.27);transform: translate(0.00px,0.00px) rotate(0.00deg) scale(1.03, 1.03) ;}64.00% {transform: translate(0.00px,0.00px) rotate(0.00deg) scale(1.01, 1.01) ;}68.00% {transform: translate(0.00px,0.00px) rotate(0.00deg) scale(1.00, 1.00) ;}72.00% {animation-timing-function: cubic-bezier(0.67,0.66,0.34,0.33);transform: translate(0.00px,0.00px) rotate(0.00deg) scale(0.98, 0.98) ;}76.00% {animation-timing-function: cubic-bezier(0.66,0.68,0.33,0.35);transform: translate(0.00px,0.00px) rotate(0.00deg) scale(0.97, 0.97) ;}82.00% {animation-timing-function: cubic-bezier(0.65,0.71,0.32,0.38);transform: translate(0.00px,0.00px) rotate(0.00deg) scale(0.94, 0.94) ;}88.00% {animation-timing-function: cubic-bezier(0.65,0.73,0.31,0.40);transform: translate(0.00px,0.00px) rotate(0.00deg) scale(0.92, 0.92) ;}94.00% {animation-timing-function: cubic-bezier(0.63,0.80,0.28,0.48);transform: translate(0.00px,0.00px) rotate(0.00deg) scale(0.91, 0.91) ;}100.00% {animation-timing-function: cubic-bezier(0.63,0.80,0.28,0.48);transform: translate(0.00px,0.00px) rotate(0.00deg) scale(0.91, 0.91) ;} }</STYLE><!-- [ldio] generated by https://loading.io --></svg>