<svg xml:space="preserve" viewBox="0 0 100 100" y="0" x="0" xmlns="http://www.w3.org/2000/svg" id="Layer_1" version="1.1" preserveAspectRatio="xMidYMid" width="50" height="50" xmlns:xlink="http://www.w3.org/1999/xlink" style="margin-top:0px;margin-right:0px;margin-bottom:0px;margin-left:0px;display:block;shape-rendering:auto;background-position-x:0%;background-position-y:0%;background-size:auto;background-origin:padding-box;background-clip:border-box;background:scroll rgba(0, 0, 0, 0) none  repeat;width:50px;height:50px;;animation:none"><g class="ldl-scale" style="transform-origin:50px 50px;transform:matrix(1, 0, 0, 1, 0, 0);;animation:none"><g class="ldl-ani"><g class="ldl-layer"><g class="ldl-ani"><g id="XMLID_1809_"><g class="ldl-layer"><g class="ldl-ani" style="transform-origin:50px 50px;transform:matrix(1.03, 0, 0, 1.03, 0, 0);animation-duration:1s;animation-timing-function:linear;animation-delay:-0.508772s;animation-iteration-count:infinite;animation-direction:normal;animation-fill-mode:forwards;animation-play-state:paused;animation-name:animate;animation-timeline:auto;animation-range-start:normal;animation-range-end:normal;transform-box:view-box;;animation:none"><path fill="#999998" d="M80.89 45.562c.079.037.143.067.122.055l-.122-.055z" id="XMLID_1872_" style="stroke-width:1px;fill:rgb(0, 238, 255);;animation:none"></path></g></g>
<g class="ldl-layer"><g class="ldl-ani" style="transform-origin:50px 50px;transform:matrix(1.03, 0, 0, 1.03, 0, 0);animation-duration:1s;animation-timing-function:linear;animation-delay:-0.517544s;animation-iteration-count:infinite;animation-direction:normal;animation-fill-mode:forwards;animation-play-state:paused;animation-name:animate;animation-timeline:auto;animation-range-start:normal;animation-range-end:normal;transform-box:view-box;;animation:none"><path fill="#999998" d="M80.89 45.562c-.091-.042-.203-.094-.241-.11l.241.11z" id="XMLID_1871_" style="stroke-width:1px;fill:rgb(0, 238, 255);;animation:none"></path></g></g>
<g class="ldl-layer"><g class="ldl-ani" style="transform-origin:50px 50px;transform:matrix(1.03, 0, 0, 1.03, 0, 0);animation-duration:1s;animation-timing-function:linear;animation-delay:-0.526316s;animation-iteration-count:infinite;animation-direction:normal;animation-fill-mode:forwards;animation-play-state:paused;animation-name:animate;animation-timeline:auto;animation-range-start:normal;animation-range-end:normal;transform-box:view-box;;animation:none"><path fill="#999998" d="M79.725 44.97c-.194-.105-.323-.188-.225-.179-.18-.191-.337-.221-.473-.088.247.064.475.16.698.267z" id="XMLID_1870_" style="stroke-width:1px;fill:rgb(0, 238, 255);;animation:none"></path></g></g>
<g class="ldl-layer"><g class="ldl-ani" style="transform-origin:50px 50px;transform:matrix(1.03, 0, 0, 1.03, 0, 0);animation-duration:1s;animation-timing-function:linear;animation-delay:-0.535088s;animation-iteration-count:infinite;animation-direction:normal;animation-fill-mode:forwards;animation-play-state:paused;animation-name:animate;animation-timeline:auto;animation-range-start:normal;animation-range-end:normal;transform-box:view-box;;animation:none"><path fill="#999998" d="M79.725 44.97c.307.166.78.389.801.4-.274-.128-.534-.272-.801-.4z" id="XMLID_1869_" style="stroke-width:1px;fill:rgb(0, 238, 255);;animation:none"></path></g></g>
<g class="ldl-layer"><g class="ldl-ani" style="transform-origin:50px 50px;transform:matrix(1.03, 0, 0, 1.03, 0, 0);animation-duration:1s;animation-timing-function:linear;animation-delay:-0.54386s;animation-iteration-count:infinite;animation-direction:normal;animation-fill-mode:forwards;animation-play-state:paused;animation-name:animate;animation-timeline:auto;animation-range-start:normal;animation-range-end:normal;transform-box:view-box;;animation:none"><path fill="#999998" d="M61.01 54.429c.023-.055.036-.102.053-.152-.06.055-.096.112-.053.152z" id="XMLID_1868_" style="stroke-width:1px;fill:rgb(0, 238, 255);;animation:none"></path></g></g>
<g class="ldl-layer"><g class="ldl-ani" style="transform-origin:50px 50px;transform:matrix(1.03, 0, 0, 1.03, 0, 0);animation-duration:1s;animation-timing-function:linear;animation-delay:-0.552632s;animation-iteration-count:infinite;animation-direction:normal;animation-fill-mode:forwards;animation-play-state:paused;animation-name:animate;animation-timeline:auto;animation-range-start:normal;animation-range-end:normal;transform-box:view-box;;animation:none"><path fill="#999998" d="M62.612 35.918l-.189.451c.199.125.147-.212.189-.451z" id="XMLID_1867_" style="stroke-width:1px;fill:rgb(0, 238, 255);;animation:none"></path></g></g>
<g class="ldl-layer"><g class="ldl-ani" style="transform-origin:50px 50px;transform:matrix(1.03, 0, 0, 1.03, 0, 0);animation-duration:1s;animation-timing-function:linear;animation-delay:-0.561404s;animation-iteration-count:infinite;animation-direction:normal;animation-fill-mode:forwards;animation-play-state:paused;animation-name:animate;animation-timeline:auto;animation-range-start:normal;animation-range-end:normal;transform-box:view-box;;animation:none"><path fill="#999998" d="M76.324 43.35c.082.035 0 0 0 0z" id="XMLID_1866_" style="stroke-width:1px;fill:rgb(0, 238, 255);;animation:none"></path></g></g>
<g class="ldl-layer"><g class="ldl-ani" style="transform-origin:50px 50px;transform:matrix(1.03, 0, 0, 1.03, 0, 0);animation-duration:1s;animation-timing-function:linear;animation-delay:-0.570175s;animation-iteration-count:infinite;animation-direction:normal;animation-fill-mode:forwards;animation-play-state:paused;animation-name:animate;animation-timeline:auto;animation-range-start:normal;animation-range-end:normal;transform-box:view-box;;animation:none"><path fill="#999998" d="M76.324 43.35c.469.198.094.026 0 0z" id="XMLID_1865_" style="stroke-width:1px;fill:rgb(0, 238, 255);;animation:none"></path></g></g>
<g class="ldl-layer"><g class="ldl-ani" style="transform-origin:50px 50px;transform:matrix(1.03, 0, 0, 1.03, 0, 0);animation-duration:1s;animation-timing-function:linear;animation-delay:-0.578947s;animation-iteration-count:infinite;animation-direction:normal;animation-fill-mode:forwards;animation-play-state:paused;animation-name:animate;animation-timeline:auto;animation-range-start:normal;animation-range-end:normal;transform-box:view-box;;animation:none"><path fill="#999998" d="M63.945 30.126l.197.262c.069-1.383-.044-.019-.197-.262z" id="XMLID_1864_" style="stroke-width:1px;fill:rgb(0, 238, 255);;animation:none"></path></g></g>
<g class="ldl-layer"><g class="ldl-ani" style="transform-origin:50px 50px;transform:matrix(1.02777, 0, 0, 1.02777, 0, 0);animation-duration:1s;animation-timing-function:linear;animation-delay:-0.587719s;animation-iteration-count:infinite;animation-direction:normal;animation-fill-mode:forwards;animation-play-state:paused;animation-name:animate;animation-timeline:auto;animation-range-start:normal;animation-range-end:normal;transform-box:view-box;;animation:none"><path fill="#999998" d="M69.11 36.818c.264.09.423.009.478-.242-.041-.052-.047-.015-.039.011a.715.715 0 0 0-.439.231z" id="XMLID_1863_" style="stroke-width:1px;fill:rgb(0, 238, 255);;animation:none"></path></g></g>
<g class="ldl-layer"><g class="ldl-ani" style="transform-origin:50px 50px;transform:matrix(1.02526, 0, 0, 1.02526, 0, 0);animation-duration:1s;animation-timing-function:linear;animation-delay:-0.596491s;animation-iteration-count:infinite;animation-direction:normal;animation-fill-mode:forwards;animation-play-state:paused;animation-name:animate;animation-timeline:auto;animation-range-start:normal;animation-range-end:normal;transform-box:view-box;;animation:none"><path fill="#999998" d="M61.918 30.909a1.377 1.377 0 0 0-.19-.231c.067.106.13.178.19.231z" id="XMLID_1862_" style="stroke-width:1px;fill:rgb(0, 238, 255);;animation:none"></path></g></g>
<g class="ldl-layer"><g class="ldl-ani" style="transform-origin:50px 50px;transform:matrix(1.02273, 0, 0, 1.02273, 0, 0);animation-duration:1s;animation-timing-function:linear;animation-delay:-0.605263s;animation-iteration-count:infinite;animation-direction:normal;animation-fill-mode:forwards;animation-play-state:paused;animation-name:animate;animation-timeline:auto;animation-range-start:normal;animation-range-end:normal;transform-box:view-box;;animation:none"><path fill="#999998" d="M13.558 51.614c.003-.012-.004-.019-.003-.029-.029.015-.037.027.003.029z" id="XMLID_1861_" style="stroke-width:1px;fill:rgb(0, 238, 255);;animation:none"></path></g></g>
<g class="ldl-layer"><g class="ldl-ani" style="transform-origin:50px 50px;transform:matrix(1.01986, 0, 0, 1.01986, 0, 0);animation-duration:1s;animation-timing-function:linear;animation-delay:-0.614035s;animation-iteration-count:infinite;animation-direction:normal;animation-fill-mode:forwards;animation-play-state:paused;animation-name:animate;animation-timeline:auto;animation-range-start:normal;animation-range-end:normal;transform-box:view-box;;animation:none"><path fill="#999998" d="M59.963 59.164l.012-.02c-.047-.132-.043-.06-.012.02z" id="XMLID_1860_" style="stroke-width:1px;fill:rgb(0, 238, 255);;animation:none"></path></g></g>
<g class="ldl-layer"><g class="ldl-ani" style="transform-origin:50px 50px;transform:matrix(1.01652, 0, 0, 1.01652, 0, 0);animation-duration:1s;animation-timing-function:linear;animation-delay:-0.622807s;animation-iteration-count:infinite;animation-direction:normal;animation-fill-mode:forwards;animation-play-state:paused;animation-name:animate;animation-timeline:auto;animation-range-start:normal;animation-range-end:normal;transform-box:view-box;;animation:none"><path fill="#999998" d="M62.989 69.029a.227.227 0 0 0 .062.232.36.36 0 0 0-.062-.232z" id="XMLID_1859_" style="stroke-width:1px;fill:rgb(0, 238, 255);;animation:none"></path></g></g>
<g class="ldl-layer"><g class="ldl-ani" style="transform-origin:50px 50px;transform:matrix(1.01317, 0, 0, 1.01317, 0, 0);animation-duration:1s;animation-timing-function:linear;animation-delay:-0.631579s;animation-iteration-count:infinite;animation-direction:normal;animation-fill-mode:forwards;animation-play-state:paused;animation-name:animate;animation-timeline:auto;animation-range-start:normal;animation-range-end:normal;transform-box:view-box;;animation:none"><path fill="#999998" d="M60.671 62.631l-.103.315c.062-.133.088-.231.103-.315z" id="XMLID_1858_" style="stroke-width:1px;fill:rgb(0, 238, 255);;animation:none"></path></g></g>
<g class="ldl-layer"><g class="ldl-ani" style="transform-origin:50px 50px;transform:matrix(1.00991, 0, 0, 1.00991, 0, 0);animation-duration:1s;animation-timing-function:linear;animation-delay:-0.640351s;animation-iteration-count:infinite;animation-direction:normal;animation-fill-mode:forwards;animation-play-state:paused;animation-name:animate;animation-timeline:auto;animation-range-start:normal;animation-range-end:normal;transform-box:view-box;;animation:none"><path fill="#999998" d="M68.692 64.698c-.106-.066-.198-.025-.276.124a.504.504 0 0 1 .07-.01.284.284 0 0 0 .206-.114z" id="XMLID_1857_" style="stroke-width:1px;fill:rgb(0, 238, 255);;animation:none"></path></g></g>
<g class="ldl-layer"><g class="ldl-ani" style="transform-origin:50px 50px;transform:matrix(1.00772, 0, 0, 1.00772, 0, 0);animation-duration:1s;animation-timing-function:linear;animation-delay:-0.649123s;animation-iteration-count:infinite;animation-direction:normal;animation-fill-mode:forwards;animation-play-state:paused;animation-name:animate;animation-timeline:auto;animation-range-start:normal;animation-range-end:normal;transform-box:view-box;;animation:none"><path fill="#999998" d="M68.486 64.812c-.024.003-.044.013-.07.01.113.002.121-.013.07-.01z" id="XMLID_1856_" style="stroke-width:1px;fill:rgb(0, 238, 255);;animation:none"></path></g></g>
<g class="ldl-layer"><g class="ldl-ani" style="transform-origin:50px 50px;transform:matrix(1.00553, 0, 0, 1.00553, 0, 0);animation-duration:1s;animation-timing-function:linear;animation-delay:-0.657895s;animation-iteration-count:infinite;animation-direction:normal;animation-fill-mode:forwards;animation-play-state:paused;animation-name:animate;animation-timeline:auto;animation-range-start:normal;animation-range-end:normal;transform-box:view-box;;animation:none"><path fill="#999998" d="M72.22 62.515c-.152-.084-.349.022 0 0z" id="XMLID_1855_" style="stroke-width:1px;fill:rgb(0, 238, 255);;animation:none"></path></g></g>
<g class="ldl-layer"><g class="ldl-ani" style="transform-origin:50px 50px;transform:matrix(1.00333, 0, 0, 1.00333, 0, 0);animation-duration:1s;animation-timing-function:linear;animation-delay:-0.666667s;animation-iteration-count:infinite;animation-direction:normal;animation-fill-mode:forwards;animation-play-state:paused;animation-name:animate;animation-timeline:auto;animation-range-start:normal;animation-range-end:normal;transform-box:view-box;;animation:none"><path fill="#999998" d="M27.114 52.686a1.644 1.644 0 0 1-.202-.444c.065.343-.596.394.202.444z" id="XMLID_1854_" style="stroke-width:1px;fill:rgb(0, 238, 255);;animation:none"></path></g></g>
<g class="ldl-layer"><g class="ldl-ani" style="transform-origin:50px 50px;transform:matrix(1.00114, 0, 0, 1.00114, 0, 0);animation-duration:1s;animation-timing-function:linear;animation-delay:-0.675439s;animation-iteration-count:infinite;animation-direction:normal;animation-fill-mode:forwards;animation-play-state:paused;animation-name:animate;animation-timeline:auto;animation-range-start:normal;animation-range-end:normal;transform-box:view-box;;animation:none"><path fill="#999998" d="M76.364 43.284c-.024-.028-.294.115 0 0z" id="XMLID_1853_" style="stroke-width:1px;fill:rgb(0, 238, 255);;animation:none"></path></g></g>
<g class="ldl-layer"><g class="ldl-ani" style="transform-origin:50px 50px;transform:matrix(0.997895, 0, 0, 0.997895, 0, 0);animation-duration:1s;animation-timing-function:linear;animation-delay:-0.684211s;animation-iteration-count:infinite;animation-direction:normal;animation-fill-mode:forwards;animation-play-state:paused;animation-name:animate;animation-timeline:auto;animation-range-start:normal;animation-range-end:normal;transform-box:view-box;;animation:none"><path fill="#999998" d="M67.064 60.951a3.164 3.164 0 0 0-.657.321l.657-.321z" id="XMLID_1852_" style="stroke-width:1px;fill:rgb(0, 238, 255);;animation:none"></path></g></g>
<g class="ldl-layer"><g class="ldl-ani" style="transform-origin:50px 50px;transform:matrix(0.993509, 0, 0, 0.993509, 0, 0);animation-duration:1s;animation-timing-function:linear;animation-delay:-0.692982s;animation-iteration-count:infinite;animation-direction:normal;animation-fill-mode:forwards;animation-play-state:paused;animation-name:animate;animation-timeline:auto;animation-range-start:normal;animation-range-end:normal;transform-box:view-box;;animation:none"><path fill="#999998" d="M59.368 53.206l-.165.06c.063.012.121-.002.165-.06z" id="XMLID_1851_" style="stroke-width:1px;fill:rgb(0, 238, 255);;animation:none"></path></g></g>
<g class="ldl-layer"><g class="ldl-ani" style="transform-origin:50px 50px;transform:matrix(0.989123, 0, 0, 0.989123, 0, 0);animation-duration:1s;animation-timing-function:linear;animation-delay:-0.701754s;animation-iteration-count:infinite;animation-direction:normal;animation-fill-mode:forwards;animation-play-state:paused;animation-name:animate;animation-timeline:auto;animation-range-start:normal;animation-range-end:normal;transform-box:view-box;;animation:none"><path fill="#999998" d="M69.406 59.701a98.41 98.41 0 0 1-.538.062c.402.253.581.232.538-.062z" id="XMLID_1850_" style="stroke-width:1px;fill:rgb(0, 238, 255);;animation:none"></path></g></g>
<g class="ldl-layer"><g class="ldl-ani" style="transform-origin:50px 50px;transform:matrix(0.984737, 0, 0, 0.984737, 0, 0);animation-duration:1s;animation-timing-function:linear;animation-delay:-0.710526s;animation-iteration-count:infinite;animation-direction:normal;animation-fill-mode:forwards;animation-play-state:paused;animation-name:animate;animation-timeline:auto;animation-range-start:normal;animation-range-end:normal;transform-box:view-box;;animation:none"><path fill="#999998" d="M59.884 60.982c.004-.06.02-.104.033-.152a.675.675 0 0 0-.033.152z" id="XMLID_1849_" style="stroke-width:1px;fill:rgb(0, 238, 255);;animation:none"></path></g></g>
<g class="ldl-layer"><g class="ldl-ani" style="transform-origin:50px 50px;transform:matrix(0.980351, 0, 0, 0.980351, 0, 0);animation-duration:1s;animation-timing-function:linear;animation-delay:-0.719298s;animation-iteration-count:infinite;animation-direction:normal;animation-fill-mode:forwards;animation-play-state:paused;animation-name:animate;animation-timeline:auto;animation-range-start:normal;animation-range-end:normal;transform-box:view-box;;animation:none"><path fill="#999998" d="M36.729 48.592c-.024.004-.04-.007-.067.004-.022.036.037.014.067-.004z" id="XMLID_1848_" style="stroke-width:1px;fill:rgb(0, 238, 255);;animation:none"></path></g></g>
<g class="ldl-layer"><g class="ldl-ani" style="transform-origin:50px 50px;transform:matrix(0.978014, 0, 0, 0.978014, 0, 0);animation-duration:1s;animation-timing-function:linear;animation-delay:-0.72807s;animation-iteration-count:infinite;animation-direction:normal;animation-fill-mode:forwards;animation-play-state:paused;animation-name:animate;animation-timeline:auto;animation-range-start:normal;animation-range-end:normal;transform-box:view-box;;animation:none"><path fill="#999998" d="M70.573 38.07c-.047-.016-.097-.004-.144-.012.064.03.117.041.144.012z" id="XMLID_1847_" style="stroke-width:1px;fill:rgb(0, 238, 255);;animation:none"></path></g></g>
<g class="ldl-layer"><g class="ldl-ani" style="transform-origin:50px 50px;transform:matrix(0.975858, 0, 0, 0.975858, 0, 0);animation-duration:1s;animation-timing-function:linear;animation-delay:-0.736842s;animation-iteration-count:infinite;animation-direction:normal;animation-fill-mode:forwards;animation-play-state:paused;animation-name:animate;animation-timeline:auto;animation-range-start:normal;animation-range-end:normal;transform-box:view-box;;animation:none"><path fill="#999998" d="M71.207 38.962a.47.47 0 0 1 .034-.265c-.09.084-.092.172-.034.265z" id="XMLID_1846_" style="stroke-width:1px;fill:rgb(0, 238, 255);;animation:none"></path></g></g>
<g class="ldl-layer"><g class="ldl-ani" style="transform-origin:50px 50px;transform:matrix(0.973656, 0, 0, 0.973656, 0, 0);animation-duration:1s;animation-timing-function:linear;animation-delay:-0.745614s;animation-iteration-count:infinite;animation-direction:normal;animation-fill-mode:forwards;animation-play-state:paused;animation-name:animate;animation-timeline:auto;animation-range-start:normal;animation-range-end:normal;transform-box:view-box;;animation:none"><path fill="#999998" d="M71.207 38.962v.001c.006.014.019.03.017.04-.012-.014-.008-.027-.017-.041z" id="XMLID_1845_" style="stroke-width:1px;fill:rgb(0, 238, 255);;animation:none"></path></g></g>
<g class="ldl-layer"><g class="ldl-ani" style="transform-origin:50px 50px;transform:matrix(0.971426, 0, 0, 0.971426, 0, 0);animation-duration:1s;animation-timing-function:linear;animation-delay:-0.754386s;animation-iteration-count:infinite;animation-direction:normal;animation-fill-mode:forwards;animation-play-state:paused;animation-name:animate;animation-timeline:auto;animation-range-start:normal;animation-range-end:normal;transform-box:view-box;;animation:none"><path fill="#999998" d="M65.269 35.138c-.004-.009-.015-.024-.02-.035-.016-.016-.029-.031-.054-.05.003.071.028.099.074.085z" id="XMLID_1844_" style="stroke-width:1px;fill:rgb(0, 238, 255);;animation:none"></path></g></g>
<g class="ldl-layer"><g class="ldl-ani" style="transform-origin:50px 50px;transform:matrix(0.968373, 0, 0, 0.968373, 0, 0);animation-duration:1s;animation-timing-function:linear;animation-delay:-0.763158s;animation-iteration-count:infinite;animation-direction:normal;animation-fill-mode:forwards;animation-play-state:paused;animation-name:animate;animation-timeline:auto;animation-range-start:normal;animation-range-end:normal;transform-box:view-box;;animation:none"><path fill="#999998" d="M60.21 58.901a.734.734 0 0 0-.041-.19.432.432 0 0 0 .041.19z" id="XMLID_1843_" style="stroke-width:1px;fill:rgb(0, 238, 255);;animation:none"></path></g></g>
<g class="ldl-layer"><g class="ldl-ani" style="transform-origin:50px 50px;transform:matrix(0.963844, 0, 0, 0.963844, 0, 0);animation-duration:1s;animation-timing-function:linear;animation-delay:-0.77193s;animation-iteration-count:infinite;animation-direction:normal;animation-fill-mode:forwards;animation-play-state:paused;animation-name:animate;animation-timeline:auto;animation-range-start:normal;animation-range-end:normal;transform-box:view-box;;animation:none"><path fill="#999998" d="M71.719 58.178a.669.669 0 0 0 .098-.155.96.96 0 0 0-.098.155z" id="XMLID_1842_" style="stroke-width:1px;fill:rgb(0, 238, 255);;animation:none"></path></g></g>
<g class="ldl-layer"><g class="ldl-ani" style="transform-origin:50px 50px;transform:matrix(0.959307, 0, 0, 0.959307, 0, 0);animation-duration:1s;animation-timing-function:linear;animation-delay:-0.780702s;animation-iteration-count:infinite;animation-direction:normal;animation-fill-mode:forwards;animation-play-state:paused;animation-name:animate;animation-timeline:auto;animation-range-start:normal;animation-range-end:normal;transform-box:view-box;;animation:none"><path fill="#999998" d="M64.274 61.46c.026.122-.054.145-.187.111.144.094.21.062.187-.111z" id="XMLID_1841_" style="stroke-width:1px;fill:rgb(0, 238, 255);;animation:none"></path></g></g>
<g class="ldl-layer"><g class="ldl-ani" style="transform-origin:50px 50px;transform:matrix(0.954813, 0, 0, 0.954813, 0, 0);animation-duration:1s;animation-timing-function:linear;animation-delay:-0.789474s;animation-iteration-count:infinite;animation-direction:normal;animation-fill-mode:forwards;animation-play-state:paused;animation-name:animate;animation-timeline:auto;animation-range-start:normal;animation-range-end:normal;transform-box:view-box;;animation:none"><path fill="#999998" d="M64.036 61.539l.011.017c.012.004.028.012.04.015-.018-.012-.032-.017-.051-.032z" id="XMLID_1840_" style="stroke-width:1px;fill:rgb(0, 238, 255);;animation:none"></path></g></g>
<g class="ldl-layer"><g class="ldl-ani" style="transform-origin:50px 50px;transform:matrix(0.950523, 0, 0, 0.950523, 0, 0);animation-duration:1s;animation-timing-function:linear;animation-delay:-0.798246s;animation-iteration-count:infinite;animation-direction:normal;animation-fill-mode:forwards;animation-play-state:paused;animation-name:animate;animation-timeline:auto;animation-range-start:normal;animation-range-end:normal;transform-box:view-box;;animation:none"><path fill="#999998" d="M85.529 55.621a2.226 2.226 0 0 1 1.325-1.495c.238.741 2.575.385 4.156-.085.222.02.444.024.668.002l-.038-.212c.431-.16.739-.318.805-.436.234-.419-.351-1.964-.436-2.442-.203-1.135-.067-1.586-1.171-1.608l-.031-.175c-.262.137-.567.299-.883.431-.026-.089-.088-.173-.227-.242.128.12.134.217.087.304-.372.138-.761.214-1.127.12l.105.156a.774.774 0 0 1-.056-.048c-.47-.472.193-.215.147-.603-.728-.089-.324-.48-.846-.786-.025.458-.269.595-.732.413.234.131.401.384.628.527-.918.481-1.138-.856-2.066-.378l.357-.349c-.859.301-2.095-.059-2.682.861-.169-.185-.161-.357.024-.518-.769-.086-4.116 1.082-4.003.078-.254.075-.462.5-.766.23.069-.105.065-.202-.012-.291-.244.166-.706.462-1.02.308l.293-.305c-.801-.227-1.258.123-1.957.4-.279.188-.58.322-.903.402-.349.224-.509.086-.48-.415-1.2-.462-1.262-.962-2.659-.718-.671.118-1.305.519-1.97.605-1.388.179-.566-.088-1.696-.223-1.146-.138-2.485-.079-3.581-.471.195.135-.122.484-.463.698-.2-.44.049-1.127-.445-1.441a.81.81 0 0 0 .573.11l-.455-.253c.115-.183.756-.254.475-.526-.261-.252-.758.331-.425-.42a.726.726 0 0 1 .171.199c.203-.822-.364-1.94.025-2.694.167-.325.455.62.738.488-.086-1.273-.774-2.528-.577-3.823-.952.452.312-.808-.04-1.29a.54.54 0 0 0 .431.16c.187-.947-.28-1.765-.533-2.632l.25.204c.516-.501.138-1.368-.339-1.705.982.198.194-1.576.096-1.996.004.107.807 1.035.985 1.37.179.18-.113.225.398.362-.062-.176-.68-1.264-.446-1.377.179-.087.94 2.361.579.964.008.186.08.316.218.39.054-.163-.066-.375.02-.533.022-.041.436.551.445.557.701.539.255.125.191.598.301.249.89-.178.979.446-.775-.197-.524.28-.161.744l.14.204c-.028-.051-.054-.088-.082-.131.114.14.233.277.333.389l-.096-.219c.948-.261 1.258.687 2.126.765-1.768-.207 1.047 1.945 1.054 1.902a.662.662 0 0 1-.099-.329c.817.209 1.485 1.133 2.225 1.512.286.147 1.692.807 2.185.964-.06-.013-.123-.017-.181-.04.3.271.933.658 1.139.826.117.095 1.404.571.331.324.421.166.839.34 1.254.522a.667.667 0 0 1-.458-.092c.372.162.966.552 1.391.588-.108-.045-.89-.26-.903-.504l.295.143c-.265-.456-1.307-.732-1.716-.968l.341-.025c-.224-.058-.443-.144-.665-.211-.113-.199-.051-.243.185-.133-.31-.34-.646-.541-1.033-.724.068-.101.151-.102.25-.003-.267-.287-1.12-.824-1.248-.948-.601-.37-1.408.157-1.169-1.008-.189.031-1.773-.418-1.863-1.097-.09-.194-.974-.687-1.073-.928.101-.017.197.007.295.024-.786-.35-4.149-4.6-4.373-5.186-.155 1.338-1.436-1.434-1.407-1.366-.128-.298.067-.606-.506-1.119-.03.919-.659-.625-.631-.587-.405-.561-.34-1.008-1.022-1.524.09.294.379 1.554-.324 1.236.572 1.191 1.399 2.288 1.696 3.596-.296-.549-.674-1.165-.822-1.778-.002-.009.165.694.116.67l-.456-1.268c-.197.094.37 1.03.344 1.22a7.399 7.399 0 0 1-.569-1.286c-.07.354-.255.435-.557.241.146.204.786 1.19.532 1.527-.111.147-.446-.623-.599-.375.267.575.115.988.565 1.511-.125.143-.26.134-.406-.027.243.715.049 2.057.744 2.18.414 1.184-.041 2.38-.095 3.574-.011.233.491 2.771-.229 2.485.138.538.269.69.017 1.257-.284-.463-.279.111-.222-.511-.164.621-.402.861.013 1.468-.48-.257-.567.537-.468.77l.345-.436c.041.316.027.63-.04.941-1.461-.747.126 2.542-.717 3.153.405.359.342-.687.819-.363-.087.47-.594.719-.865 1.052-.653-.147-1.355.087-2.084.079-1.029-.011-1.767-.562-2.65.056.214-1.017-1.933-.686-2.558-.628l.243-.369c-.793-.05-.712 1.484-1.459 1.512.067-1.313-2.773-1.3-3.621-.789a.382.382 0 0 1 .243-.367c-.491-.025-2.082-.534-1.903.516-.005-.76-1.56.096-1.809.215l.103-.511c-.417.507-.621.842-1.285.998-.18-.178-.152-.271.082-.278-.515-.247-.579.43-1.153.197l.265-.324c-.489-.039-1.845 1.279-2.088-.102-.116.378-.37.55-.763.517a.323.323 0 0 1 .149-.335c-1.033-.378-1.461.509-2.274-.243-.069-.002 1.282.146 1.365.095.008-.592-.626-.569-.115-1.209-.514.348-1.739 1.351-2.036.665-.683-.234-1.667-.513-2.033.036-.2.301.017.404.323.431-.22.085.073.038.138.008.321.007.683-.044.785-.047-.592.603-.767.158-1.323 1.013-.676-1.154-1.345-1.588-2.554-1.342-.887.18-1.647 1.21-2.144.425.162-.038.308-.109.438-.211-.507.205-1.628.026-1.777.763-.385-.167-.092-.499-.164-.53-.486-.2-.906-.436-1.866-.217-1.319.301-2.093 1.293-3.546.546.751.332-1.144.086-1.196.086-.611-.001-1.222.08-1.83.128-1.553.122-3.147-.04-4.674.154-1.029.131-3.059.139-4.277.617l.172.071c-1.64.193-3.336.572-4.886 1.22-.017.004-.034.012-.052.015l.017-.003h-.001.001a13.07 13.07 0 0 1 1.666-.245l-.605.079c.607-.027 1.214-.099 1.796-.282-.048-.024 1.047.025.866.055 1.082-.206 2.211-.18 3.255-.213-.284.166.854.296 1.024.315.497.055 1.75.091 2.45-.071-.607.47 1.214.035 1.113.031 1.405.048.142-.266.506.611-.059-.737 1.112-.444 1.334-.008.139-1.043 1.617.304 1.625.294a.787.787 0 0 1-.348.186c.661.102.296-.39.472-.713.818-.07.296.329.643.709.404-.054 3.509-.861 3.595-.484-.18-.591.441-1.403.596-.81a.339.339 0 0 0-.294.268l.322-.162c.3.658-.438.121-.444.614.481-.105 1.31-.63 1.833-.41.085.582-1.071.175-.489.718-.223-.133-.512-.155-.736-.288.192.342-.235.738.058.936.255.173 1.46.154 1.684.045.118-.058.615-.863.532-.837.977-.309.747.586 1.372.751.858.227 1.08-1.232 1.815-.796-.124.209-.122.501-.255.704.799.068.684-.942 1.531-.521-.01.015-.548.342-.602.31.622.557.421-.395.948-.388l.094.626c1.096-.093 2.13-.524 3.226-.622-.309.894 1.848.519 2.558.638.809.135 1.785.839 2.301-.095.158.08.188.197.088.349.469.189.078-.38.288-.55.311.058.378.216.2.475.567-.27 3.778-1.095 3.438-.203.307.092 1.463-.529 1.507-.535.442-.07 2.1.085 2.799.152.616.059 3.495.95 3.624-.204.407.238.883.821 1.364.909 1.256.23.576-.318 1.605-.569l.003.566c.146-.23.441-.368.604-.586.333.693.135.54.723.542a.447.447 0 0 1-.318-.421c.816-.313 1.154.623 1.655.681.178.021.416-.048.658-.135-.017.296-.034.593-.135.887.116-.143.244-.174.382-.09-.392 1.258.256.262.282.951.021.543-.081.176-.256.536-.152.313-.385.966-.922.291.357.734-.327 1.103-.495 1.721l-.144-.392c.284.779-.136.607.503.428-.015.2-.112.328-.292.383-.033-.031 2.278 1.213.658 1.351.2-.648-.402-.236-.568-.556.024.339-.324.346-.354.746-.024.311.682.355.623.908-.311-.079-.494.019-.562.276.18-.499.838 1.314.754 1.801l.175-.528c.274.272.369.605.285 1.001-.193.11-.201-.311-.269-.194.452.361-.648 2.557-.814 3.024-.314.881-1.359 2.46-1.028 3.583.268-.5.301-.936.852-.729a53.005 53.005 0 0 1-.127-1.545c.179.18.411.224.598.38a9.65 9.65 0 0 1-.058-1.226c.401.181.431-.115.674-.474-.504.876-.098 1.611-.58 2.537-.541 1.039-1.74 1.889-1.28 3.263.793-.728 1.589-1.733 2.602-2.168-.107.002-.215 0-.322-.007.4-.65 1.012-.807 1.512-1.329-.193.466-.118.482.097.81.132-.618 1.536-1.59 1.769-1.773.274-.215.868-.283 1.254-.755.447-.548.518-1.321 1.22-1.677-.144.625.411.563-.153 1.217.768-.496 1.506-1.675 1.792-1.919-.173-.282.392-.458-.142-.673 1.341.467 3.984-1.604 5-2.227.065.082.056.143-.029.181.772-.094.1-.844.533-1.113.511-.317.757-.066.414.325-.615.701 1.421-.06 1.049-.021.318-.034.966-.158 1.11-.242 1.272-.743 1.604-1.885 2.843-2.897-.001.409-.151.422.145.735.165-.129.184-2.132 1.245-.517l-.559.303c.649.494.777-.748 1.167-.148.684-.416.725-1.247 1.508-1.564-.296-.827.475-.135.712-.714.113.216.352.368.459.587.467-.546.893-1.162 1.486-1.584-.14.669-.708 1.165-1.061 1.715.331-.142 1.132-.527 1.169-.974a.514.514 0 0 1-.389.327zm-48.867-7.025c.099-.033.093-.019.067-.004.119-.021.206.015.243.142-.301.023-.554.261-.31-.138zm1.115 3.643l.329-.035c.001.116-.109.127-.329.035zm1.09-.301c.081-.221.504.219.575.274-.472.171-.664.08-.575-.274zm25.423 1.481l-.003-.029a.059.059 0 0 1 .014-.002l-.011.031zm15.117 1.227c.05-.226-.001-.476.054-.701-1.451 1.498-3.689 1.813-5.136 3.31a.462.462 0 0 1 .123-.431c-.407-.134-1.462.532-1.194 1.034a.668.668 0 0 1-.473-.317.762.762 0 0 0-.554.46c.022-.006-.625.44-.508.177-.634.791-3.527 2.133-3.228 2.851-.408-.781-1.485.188-1.642.684-.001-.664-1.669-.096-.982.597-.506-.389-.737.946-.678-.125-.323.823-1.007 1.523-1.614 2.143.098-.024 1.129-1.704 1.221-1.887-.07.105-.97 1.438-1.116 1.162-.33-.627 1.187-1.092.366-2.045-.405-.123-1.216-.674-1.309-.707.888.427.597-1.014 1.678-.384a.5.5 0 0 0-.47-.358c.133-.254.304-.261.511-.022-.081-.548-.533-.783-.476-1.351.163.068.311.16.445.275-.328-.427-.624-.891-.437-1.457.136-.017.215.042.236.176.039-1.083-.766-2.03-.364-3.126.539.29.907-.315.875-.808 1.029.013 2.059-.169 3.088-.15-.335-.139-.421-.85.033-.924l.048.205c-.006-.051.035-.129.206-.282.469.075.28.705.035.877l.578-.2a1.67 1.67 0 0 1-.143.499c.27-.413.987.611 1.335-.027.355.235.991.135 1.557.096.448-.061.898-.098 1.351-.111a.576.576 0 0 1 .417-.531c.795-.183 1.273.253 2.162.231 1.182-.029.583-.094 1.157-.689.022.251.831.525.477.771a13.992 13.992 0 0 0 2.795-.44c-.169-.106-.244-.252-.226-.44.526-.154.4.364.464.479.268-.117.536-.145.805-.139-.493.259-.094.334-.647.848-.402.372.205.886-.82.777z" id="XMLID_1833_" style="stroke-width:1px;fill:rgb(0, 238, 255);;animation:none"></path></g></g>
<g class="ldl-layer"><g class="ldl-ani" style="transform-origin:50px 50px;transform:matrix(0.946286, 0, 0, 0.946286, 0, 0);animation-duration:1s;animation-timing-function:linear;animation-delay:-0.807018s;animation-iteration-count:infinite;animation-direction:normal;animation-fill-mode:forwards;animation-play-state:paused;animation-name:animate;animation-timeline:auto;animation-range-start:normal;animation-range-end:normal;transform-box:view-box;;animation:none"><path fill="#999998" d="M67.917 52.962l-.009-.037c.002.013.001.027.009.037z" id="XMLID_1832_" style="stroke-width:1px;fill:rgb(0, 238, 255);;animation:none"></path></g></g>
<g class="ldl-layer"><g class="ldl-ani" style="transform-origin:50px 50px;transform:matrix(0.942042, 0, 0, 0.942042, 0, 0);animation-duration:1s;animation-timing-function:linear;animation-delay:-0.815789s;animation-iteration-count:infinite;animation-direction:normal;animation-fill-mode:forwards;animation-play-state:paused;animation-name:animate;animation-timeline:auto;animation-range-start:normal;animation-range-end:normal;transform-box:view-box;;animation:none"><path fill="#999998" d="M38.105 52.203c-.165.018 0 .005 0 0z" id="XMLID_1831_" style="stroke-width:1px;fill:rgb(0, 238, 255);;animation:none"></path></g></g>
<g class="ldl-layer"><g class="ldl-ani" style="transform-origin:50px 50px;transform:matrix(0.938336, 0, 0, 0.938336, 0, 0);animation-duration:1s;animation-timing-function:linear;animation-delay:-0.824561s;animation-iteration-count:infinite;animation-direction:normal;animation-fill-mode:forwards;animation-play-state:paused;animation-name:animate;animation-timeline:auto;animation-range-start:normal;animation-range-end:normal;transform-box:view-box;;animation:none"><path fill="#999998" d="M39.441 52.213c-.197-.154-.162-.023 0 0z" id="XMLID_1830_" style="stroke-width:1px;fill:rgb(0, 238, 255);;animation:none"></path></g></g>
<g class="ldl-layer"><g class="ldl-ani" style="transform-origin:50px 50px;transform:matrix(0.935119, 0, 0, 0.935119, 0, 0);animation-duration:1s;animation-timing-function:linear;animation-delay:-0.833333s;animation-iteration-count:infinite;animation-direction:normal;animation-fill-mode:forwards;animation-play-state:paused;animation-name:animate;animation-timeline:auto;animation-range-start:normal;animation-range-end:normal;transform-box:view-box;;animation:none"><path fill="#999998" d="M67.917 52.962l.084.359c.183-.274-.025-.28-.084-.359z" id="XMLID_1829_" style="stroke-width:1px;fill:rgb(0, 238, 255);;animation:none"></path></g></g>
<g class="ldl-layer"><g class="ldl-ani" style="transform-origin:50px 50px;transform:matrix(0.931887, 0, 0, 0.931887, 0, 0);animation-duration:1s;animation-timing-function:linear;animation-delay:-0.842105s;animation-iteration-count:infinite;animation-direction:normal;animation-fill-mode:forwards;animation-play-state:paused;animation-name:animate;animation-timeline:auto;animation-range-start:normal;animation-range-end:normal;transform-box:view-box;;animation:none"><path fill="#999998" d="M62.693 35.726c.002.001.111-.01 0 0z" id="XMLID_1828_" style="stroke-width:1px;fill:rgb(0, 238, 255);;animation:none"></path></g></g>
<g class="ldl-layer"><g class="ldl-ani" style="transform-origin:50px 50px;transform:matrix(0.928817, 0, 0, 0.928817, 0, 0);animation-duration:1s;animation-timing-function:linear;animation-delay:-0.850877s;animation-iteration-count:infinite;animation-direction:normal;animation-fill-mode:forwards;animation-play-state:paused;animation-name:animate;animation-timeline:auto;animation-range-start:normal;animation-range-end:normal;transform-box:view-box;;animation:none"><path fill="#999998" d="M57.876 53.441c-.071-.091-.102-.132 0 0z" id="XMLID_1827_" style="stroke-width:1px;fill:rgb(0, 238, 255);;animation:none"></path></g></g>
<g class="ldl-layer"><g class="ldl-ani" style="transform-origin:50px 50px;transform:matrix(0.926134, 0, 0, 0.926134, 0, 0);animation-duration:1s;animation-timing-function:linear;animation-delay:-0.859649s;animation-iteration-count:infinite;animation-direction:normal;animation-fill-mode:forwards;animation-play-state:paused;animation-name:animate;animation-timeline:auto;animation-range-start:normal;animation-range-end:normal;transform-box:view-box;;animation:none"><path fill="#999998" d="M65.962 35.781a1.614 1.614 0 0 0-.08-.213c.02.066.046.139.08.213z" id="XMLID_1826_" style="stroke-width:1px;fill:rgb(0, 238, 255);;animation:none"></path></g></g>
<g class="ldl-layer"><g class="ldl-ani" style="transform-origin:50px 50px;transform:matrix(0.923502, 0, 0, 0.923502, 0, 0);animation-duration:1s;animation-timing-function:linear;animation-delay:-0.868421s;animation-iteration-count:infinite;animation-direction:normal;animation-fill-mode:forwards;animation-play-state:paused;animation-name:animate;animation-timeline:auto;animation-range-start:normal;animation-range-end:normal;transform-box:view-box;;animation:none"><path fill="#999998" d="M69.188 38.725c.005-.002.342-.221 0 0z" id="XMLID_1825_" style="stroke-width:1px;fill:rgb(0, 238, 255);;animation:none"></path></g></g>
<g class="ldl-layer"><g class="ldl-ani" style="transform-origin:50px 50px;transform:matrix(0.920852, 0, 0, 0.920852, 0, 0);animation-duration:1s;animation-timing-function:linear;animation-delay:-0.877193s;animation-iteration-count:infinite;animation-direction:normal;animation-fill-mode:forwards;animation-play-state:paused;animation-name:animate;animation-timeline:auto;animation-range-start:normal;animation-range-end:normal;transform-box:view-box;;animation:none"><path fill="#999998" d="M64.274 61.646c.094.064.059.016-.02-.035a.05.05 0 0 0 .02.035z" id="XMLID_1824_" style="stroke-width:1px;fill:rgb(0, 238, 255);;animation:none"></path></g></g>
<g class="ldl-layer"><g class="ldl-ani" style="transform-origin:50px 50px;transform:matrix(0.918879, 0, 0, 0.918879, 0, 0);animation-duration:1s;animation-timing-function:linear;animation-delay:-0.885965s;animation-iteration-count:infinite;animation-direction:normal;animation-fill-mode:forwards;animation-play-state:paused;animation-name:animate;animation-timeline:auto;animation-range-start:normal;animation-range-end:normal;transform-box:view-box;;animation:none"><path fill="#999998" d="M66.334 61.306c.007-.002.182-.076 0 0z" id="XMLID_1823_" style="stroke-width:1px;fill:rgb(0, 238, 255);;animation:none"></path></g></g>
<g class="ldl-layer"><g class="ldl-ani" style="transform-origin:50px 50px;transform:matrix(0.917213, 0, 0, 0.917213, 0, 0);animation-duration:1s;animation-timing-function:linear;animation-delay:-0.894737s;animation-iteration-count:infinite;animation-direction:normal;animation-fill-mode:forwards;animation-play-state:paused;animation-name:animate;animation-timeline:auto;animation-range-start:normal;animation-range-end:normal;transform-box:view-box;;animation:none"><path fill="#999998" d="M78.386 44.413l-.112-.053.112.053z" id="XMLID_1822_" style="stroke-width:1px;fill:rgb(0, 238, 255);;animation:none"></path></g></g>
<g class="ldl-layer"><g class="ldl-ani" style="transform-origin:50px 50px;transform:matrix(0.915531, 0, 0, 0.915531, 0, 0);animation-duration:1s;animation-timing-function:linear;animation-delay:-0.903509s;animation-iteration-count:infinite;animation-direction:normal;animation-fill-mode:forwards;animation-play-state:paused;animation-name:animate;animation-timeline:auto;animation-range-start:normal;animation-range-end:normal;transform-box:view-box;;animation:none"><path fill="#999998" d="M78.386 44.413c.023.011.02.009 0 0z" id="XMLID_1821_" style="stroke-width:1px;fill:rgb(0, 238, 255);;animation:none"></path></g></g>
<g class="ldl-layer"><g class="ldl-ani" style="transform-origin:50px 50px;transform:matrix(0.914001, 0, 0, 0.914001, 0, 0);animation-duration:1s;animation-timing-function:linear;animation-delay:-0.912281s;animation-iteration-count:infinite;animation-direction:normal;animation-fill-mode:forwards;animation-play-state:paused;animation-name:animate;animation-timeline:auto;animation-range-start:normal;animation-range-end:normal;transform-box:view-box;;animation:none"><path fill="#999998" d="M78.778 44.568l-.258-.105c.086.041.192.094.258.105z" id="XMLID_1820_" style="stroke-width:1px;fill:rgb(0, 238, 255);;animation:none"></path></g></g>
<g class="ldl-layer"><g class="ldl-ani" style="transform-origin:50px 50px;transform:matrix(0.912722, 0, 0, 0.912722, 0, 0);animation-duration:1s;animation-timing-function:linear;animation-delay:-0.921053s;animation-iteration-count:infinite;animation-direction:normal;animation-fill-mode:forwards;animation-play-state:paused;animation-name:animate;animation-timeline:auto;animation-range-start:normal;animation-range-end:normal;transform-box:view-box;;animation:none"><path fill="#999998" d="M74.553 42.305c.274.2.507.421.804.513a42.055 42.055 0 0 0-.804-.513z" id="XMLID_1819_" style="stroke-width:1px;fill:rgb(0, 238, 255);;animation:none"></path></g></g>
<g class="ldl-layer"><g class="ldl-ani" style="transform-origin:50px 50px;transform:matrix(0.911467, 0, 0, 0.911467, 0, 0);animation-duration:1s;animation-timing-function:linear;animation-delay:-0.929825s;animation-iteration-count:infinite;animation-direction:normal;animation-fill-mode:forwards;animation-play-state:paused;animation-name:animate;animation-timeline:auto;animation-range-start:normal;animation-range-end:normal;transform-box:view-box;;animation:none"><path fill="#999998" d="M74.553 42.305c.191.139.251.03 0 0z" id="XMLID_1818_" style="stroke-width:1px;fill:rgb(0, 238, 255);;animation:none"></path></g></g>
<g class="ldl-layer"><g class="ldl-ani" style="transform-origin:50px 50px;transform:matrix(0.910203, 0, 0, 0.910203, 0, 0);animation-duration:1s;animation-timing-function:linear;animation-delay:-0.938596s;animation-iteration-count:infinite;animation-direction:normal;animation-fill-mode:forwards;animation-play-state:paused;animation-name:animate;animation-timeline:auto;animation-range-start:normal;animation-range-end:normal;transform-box:view-box;;animation:none"><path fill="#999998" d="M72.605 39.473c-.39-.603-.237.089-.775-.399.155.212.398.398.584.583-.113-.255-.049-.316.191-.184z" id="XMLID_1817_" style="stroke-width:1px;fill:rgb(0, 238, 255);;animation:none"></path></g></g>
<g class="ldl-layer"><g class="ldl-ani" style="transform-origin:50px 50px;transform:matrix(0.91, 0, 0, 0.91, 0, 0);animation-duration:1s;animation-timing-function:linear;animation-delay:-0.947368s;animation-iteration-count:infinite;animation-direction:normal;animation-fill-mode:forwards;animation-play-state:paused;animation-name:animate;animation-timeline:auto;animation-range-start:normal;animation-range-end:normal;transform-box:view-box;;animation:none"><path fill="#999998" d="M70.229 37.066c-.277-.1-.348-.121-.185.192.362.249.119-.149.185-.192z" id="XMLID_1816_" style="stroke-width:1px;fill:rgb(0, 238, 255);;animation:none"></path></g></g>
<g class="ldl-layer"><g class="ldl-ani" style="transform-origin:50px 50px;transform:matrix(0.91, 0, 0, 0.91, 0, 0);animation-duration:1s;animation-timing-function:linear;animation-delay:-0.95614s;animation-iteration-count:infinite;animation-direction:normal;animation-fill-mode:forwards;animation-play-state:paused;animation-name:animate;animation-timeline:auto;animation-range-start:normal;animation-range-end:normal;transform-box:view-box;;animation:none"><path fill="#999998" d="M61.775 41.911c.061.34.182.007.469.053l-.469-.053z" id="XMLID_1815_" style="stroke-width:1px;fill:rgb(0, 238, 255);;animation:none"></path></g></g>
<g class="ldl-layer"><g class="ldl-ani" style="transform-origin:50px 50px;transform:matrix(0.91, 0, 0, 0.91, 0, 0);animation-duration:1s;animation-timing-function:linear;animation-delay:-0.964912s;animation-iteration-count:infinite;animation-direction:normal;animation-fill-mode:forwards;animation-play-state:paused;animation-name:animate;animation-timeline:auto;animation-range-start:normal;animation-range-end:normal;transform-box:view-box;;animation:none"><path fill="#999998" d="M64.583 45.557l.303-.324-.426-.173c.04.166.081.331.123.497z" id="XMLID_1814_" style="stroke-width:1px;fill:rgb(0, 238, 255);;animation:none"></path></g></g>
<g class="ldl-layer"><g class="ldl-ani" style="transform-origin:50px 50px;transform:matrix(0.91, 0, 0, 0.91, 0, 0);animation-duration:1s;animation-timing-function:linear;animation-delay:-0.973684s;animation-iteration-count:infinite;animation-direction:normal;animation-fill-mode:forwards;animation-play-state:paused;animation-name:animate;animation-timeline:auto;animation-range-start:normal;animation-range-end:normal;transform-box:view-box;;animation:none"><path fill="#999998" d="M61.158 47.51l.084.421c-.014-.051-.132-.849-.084-.421z" id="XMLID_1813_" style="stroke-width:1px;fill:rgb(0, 238, 255);;animation:none"></path></g></g>
<g class="ldl-layer"><g class="ldl-ani" style="transform-origin:50px 50px;transform:matrix(0.91, 0, 0, 0.91, 0, 0);animation-duration:1s;animation-timing-function:linear;animation-delay:-0.982456s;animation-iteration-count:infinite;animation-direction:normal;animation-fill-mode:forwards;animation-play-state:paused;animation-name:animate;animation-timeline:auto;animation-range-start:normal;animation-range-end:normal;transform-box:view-box;;animation:none"><path fill="#999998" d="M71.769 63.307l-.383-.447c-.145.205.147.788.383.447z" id="XMLID_1812_" style="stroke-width:1px;fill:rgb(0, 238, 255);;animation:none"></path></g></g>
<g class="ldl-layer"><g class="ldl-ani" style="transform-origin:50px 50px;transform:matrix(0.91, 0, 0, 0.91, 0, 0);animation-duration:1s;animation-timing-function:linear;animation-delay:-0.991228s;animation-iteration-count:infinite;animation-direction:normal;animation-fill-mode:forwards;animation-play-state:paused;animation-name:animate;animation-timeline:auto;animation-range-start:normal;animation-range-end:normal;transform-box:view-box;;animation:none"><path fill="#999998" d="M83.943 56.47c-.286.089-.651.01-.757.142.253.201.668.213.757-.142z" id="XMLID_1811_" style="stroke-width:1px;fill:rgb(0, 238, 255);;animation:none"></path></g></g>
<g class="ldl-layer"><g class="ldl-ani" style="transform-origin:50px 50px;transform:matrix(0.91, 0, 0, 0.91, 0, 0);animation-duration:1s;animation-timing-function:linear;animation-delay:-1s;animation-iteration-count:infinite;animation-direction:normal;animation-fill-mode:forwards;animation-play-state:paused;animation-name:animate;animation-timeline:auto;animation-range-start:normal;animation-range-end:normal;transform-box:view-box;;animation:none"><path fill="#999998" d="M61.486 48.844l.272-.19c-.59.116-.281.22-.272.19z" id="XMLID_1810_" style="stroke-width:1px;fill:rgb(0, 238, 255);;animation:none"></path></g></g></g></g></g>
<metadata xmlns:d="https://loading.io/stock/"></metadata></g></g>
<STYLE type="text/css">@keyframes animate { 0.00% {transform: translate(0.00px,0.00px) rotate(0.00deg) scale(0.91, 0.91) skew(0deg, 0.00deg) ;opacity: 1.00;}4.00% {transform: translate(0.00px,0.00px) rotate(0.00deg) scale(0.91, 0.91) ;}8.00% {animation-timing-function: cubic-bezier(0.69,0.60,0.35,0.27);transform: translate(0.00px,0.00px) rotate(0.00deg) scale(0.91, 0.91) ;}14.00% {transform: translate(0.00px,0.00px) rotate(0.00deg) scale(0.93, 0.93) ;}18.00% {transform: translate(0.00px,0.00px) rotate(0.00deg) scale(0.94, 0.94) ;}22.00% {animation-timing-function: cubic-bezier(0.67,0.66,0.34,0.33);transform: translate(0.00px,0.00px) rotate(0.00deg) scale(0.96, 0.96) ;}26.00% {transform: translate(0.00px,0.00px) rotate(0.00deg) scale(0.97, 0.97) ;}30.00% {transform: translate(0.00px,0.00px) rotate(0.00deg) scale(0.99, 0.99) ;}34.00% {animation-timing-function: cubic-bezier(0.65,0.71,0.32,0.38);transform: translate(0.00px,0.00px) rotate(0.00deg) scale(1.01, 1.01) ;}40.00% {animation-timing-function: cubic-bezier(0.64,0.74,0.31,0.41);transform: translate(0.00px,0.00px) rotate(0.00deg) scale(1.02, 1.02) ;}46.00% {animation-timing-function: cubic-bezier(0.60,0.91,0.23,0.63);transform: translate(0.00px,0.00px) rotate(0.00deg) scale(1.03, 1.03) ;}50.00% {transform: translate(0.00px,0.00px) rotate(0.00deg) scale(1.03, 1.03) ;}54.00% {transform: translate(0.00px,0.00px) rotate(0.00deg) scale(1.03, 1.03) ;}58.00% {animation-timing-function: cubic-bezier(0.69,0.60,0.35,0.27);transform: translate(0.00px,0.00px) rotate(0.00deg) scale(1.03, 1.03) ;}64.00% {transform: translate(0.00px,0.00px) rotate(0.00deg) scale(1.01, 1.01) ;}68.00% {transform: translate(0.00px,0.00px) rotate(0.00deg) scale(1.00, 1.00) ;}72.00% {animation-timing-function: cubic-bezier(0.67,0.66,0.34,0.33);transform: translate(0.00px,0.00px) rotate(0.00deg) scale(0.98, 0.98) ;}76.00% {animation-timing-function: cubic-bezier(0.66,0.68,0.33,0.35);transform: translate(0.00px,0.00px) rotate(0.00deg) scale(0.97, 0.97) ;}82.00% {animation-timing-function: cubic-bezier(0.65,0.71,0.32,0.38);transform: translate(0.00px,0.00px) rotate(0.00deg) scale(0.94, 0.94) ;}88.00% {animation-timing-function: cubic-bezier(0.65,0.73,0.31,0.40);transform: translate(0.00px,0.00px) rotate(0.00deg) scale(0.92, 0.92) ;}94.00% {animation-timing-function: cubic-bezier(0.63,0.80,0.28,0.48);transform: translate(0.00px,0.00px) rotate(0.00deg) scale(0.91, 0.91) ;}100.00% {animation-timing-function: cubic-bezier(0.63,0.80,0.28,0.48);transform: translate(0.00px,0.00px) rotate(0.00deg) scale(0.91, 0.91) ;} }</STYLE><!-- [ldio] generated by https://loading.io --></svg>