<svg xmlns="http://www.w3.org/2000/svg" viewBox="0 0 512 512" style="height: 512px; width: 512px;"><circle cx="256" cy="256" r="176" fill="#00eeff" fill-opacity="1" stroke="#333a48" stroke-opacity="1" stroke-width="80"></circle><g class="" transform="translate(0,0)" style=""><g transform="translate(0, 512) scale(1, -1) rotate(180, 256, 256) skewX(0) skewY(0)"><path d="M255.703 44.764C249.527 44.764 243.35 46.148 238.566 48.916L85.814 137.276C76.244 142.811 76.244 151.566 85.814 157.102L238.566 245.461C248.136 250.997 263.269 250.997 272.838 245.461L425.592 157.101C435.162 151.567 435.162 142.812 425.592 137.277L272.838 48.916C268.053 46.146 261.878 44.764 255.703 44.764Z" class="selected" fill="#1f242e" fill-opacity="1"></path><path d="M226.246 88.252L307.008 138.727L320.762 130.475L344.68 145.425L330.928 153.678L354.246 168.252L330.744 182.354L307.424 167.779L264.68 193.426L236.389 175.742L198.611 104.832L226.246 88.252Z" class="" fill="#1f242e" fill-opacity="1"></path><path d="M229.922 119.34L256.258 169.178L283.506 152.828L229.922 119.34Z" class="" fill="#1f242e" fill-opacity="1"></path><path d="M435.867 173.814C433.929 173.888 431.649 174.672 428.912 176.227L281.977 261.074C272.407 266.601 264.837 279.712 264.837 290.764L264.837 448.463C264.837 459.513 272.407 463.882 281.977 458.353L428.914 373.51C438.484 367.983 446.051 354.874 446.051 343.822L446.051 186.122C443.554 178.074 440.821 173.627 435.867 173.814Z" class="" fill="#1f242e" fill-opacity="1"></path><path d="M76.104 174.294C69.877 174.294 66.071 179.619 65.949 186.119L65.949 343.816C65.949 354.868 73.519 367.979 83.089 373.506L230.019 458.354C239.589 463.88 247.16 459.51 247.16 448.459L247.16 290.759C247.16 279.708 239.59 266.6 230.02 261.072L83.09 176.225C80.523 174.887 78.179 174.295 76.104 174.295Z" class="" fill="#1f232e" fill-opacity="1"></path><path d="M392.313 228.611L392.313 253.901L346.051 281.658L346.051 302.298C348.049 300.408 350.139 298.618 352.313 296.934C354.416 295.258 356.627 293.722 358.932 292.336C371.885 284.564 381.969 282.594 389.182 286.428C396.394 290.202 400 299.358 400 313.893C400 328.309 396.062 341.96 388.186 354.848C380.356 367.706 369.466 378.319 355.516 386.689C349.49 390.305 343.511 393.149 337.58 395.219C331.696 397.319 325.836 398.631 320 399.154L320 372.078C325.789 372.775 331.27 372.614 336.441 371.596C341.645 370.556 346.629 368.624 351.174 365.885C357.817 361.899 363.036 356.741 366.832 350.412C370.675 343.996 372.598 337.304 372.598 330.334C372.598 323.304 370.675 318.917 366.832 317.172C363.036 315.399 357.817 316.504 351.174 320.49C347.236 322.853 343.036 326.029 338.576 330.016C334.116 333.943 329.324 338.784 324.199 344.539L324.199 269.48L392.312 228.611Z" class="" fill="#1f242e" fill-opacity="1"></path><path d="M138.506 245.086C144.477 245.213 151.31 247.585 159.004 252.201C163.714 255.037 168.215 258.208 172.471 261.689C176.825 265.24 181.136 269.232 185.401 273.666L185.401 297.93C181.136 292.733 177.119 288.39 173.348 284.896C169.577 281.344 165.894 278.491 162.303 276.336C154.581 271.703 148.566 270.906 144.256 273.947C139.946 276.929 137.431 283.713 136.713 294.301C139.676 293.207 142.887 292.993 146.343 293.661C149.801 294.269 153.571 295.801 157.656 298.252C167.936 304.42 176.221 313.315 182.506 324.939C188.836 336.591 192 348.776 192 361.494C192 375.56 188.476 384.729 181.428 388.998C174.379 393.208 164.93 391.758 153.078 384.646C140.014 376.808 129.89 364.99 122.707 349.193C115.569 333.365 112 314.873 112 293.715C112 272.03 116.175 257.509 124.525 250.152C128.198 246.92 132.464 245.232 137.322 245.09C137.712 245.078 138.108 245.077 138.506 245.086Z" class="" fill="#1f242e" fill-opacity="1"></path><path d="M147.386 315.342C145.681 315.285 144.256 315.882 143.111 317.129C140.867 319.592 139.744 324.66 139.744 332.338C139.744 340.016 140.867 346.463 143.111 351.678C145.401 356.861 148.813 360.813 153.348 363.533C157.927 366.281 161.338 366.423 163.582 363.961C165.872 361.467 167.018 356.381 167.018 348.703C167.018 341.025 165.872 334.593 163.582 329.41C161.337 324.195 157.927 320.214 153.348 317.467C151.081 316.107 149.093 315.398 147.387 315.342Z" class="" fill="#1f242e" fill-opacity="1"></path></g></g><g font-family="Arial, Helvetica, sans-serif" font-size="150" font-style="normal" font-weight="bold" text-anchor="middle" text-decoration=" rgba(0, 238, 255, 1)" class="" transform="translate(252,193)" style=""><g><text stroke="rgba(31, 36, 46, 1)" stroke-width="37.5"><tspan x="0" y="0">3</tspan></text><text fill="rgba(0, 238, 255, 1)"><tspan x="0" y="0">3</tspan></text></g></g></svg>