<svg xmlns="http://www.w3.org/2000/svg" viewBox="0 0 512 512" style="height: 512px; width: 512px;"><circle cx="256" cy="256" r="191" fill="#00eeff" fill-opacity="1" stroke="#333a48" stroke-opacity="1" stroke-width="65"></circle><g class="" transform="translate(0,9)" style=""><g transform="translate(0, 512) scale(1, -1) rotate(0, 256, 256) skewX(0) skewY(0)"><path d="M248 20.3L72 132.6L248 128.8L248 20.3Z" class="" fill="#1f242e" fill-opacity="1"></path><path d="M264 20.3L264 128.8L439.7 132.6L264 20.3Z" class="" fill="#1f242e" fill-opacity="1"></path><path d="M307.1 70.27C309.9 70.33 312.9 71.02 316.3 72.35C318.6 73.26 320.4 74.26 321.9 75.42C323.4 76.57 324.7 77.92 325.6 79.21C327.1 81.27 327.8 83.25 328.2 85.46C330.6 83.69 333.4 82.48 336.4 81.62C339.8 80.89 343.6 81.27 347.5 82.85C352.1 84.67 355.6 87.04 357.8 89.96C360 92.89 361.3 95.93 361.8 99.09C362.1 100.8 362.1 102.5 361.9 104.1C361.8 105.8 361.3 107.4 360.7 108.8C360.2 110.3 359.5 111.8 358.4 113.1C357.4 114.4 356.3 115.7 354.9 116.7C352.4 118.7 349.4 120 345.8 120.6C342.2 121.2 338.1 120.6 333.5 118.8C329.5 117.2 326.5 115 324.5 112.1C322.9 109.5 321.6 106.6 321.1 103.7C319.1 105.2 316.9 106.2 314.2 106.6C311.2 107.2 307.7 106.6 303.5 105C301.1 104 299 102.9 297.3 101.7C295.5 100.4 294.1 99.09 293 97.62C290.9 95.04 289.8 92.25 289.5 89.27C289.3 86.37 289.7 83.62 290.6 81.12C291.1 79.83 291.9 78.55 292.7 77.2C293.7 76.1 294.7 74.99 295.8 73.94C298.2 72.17 301 70.97 304.3 70.41C305.2 70.29 306.1 70.24 307.1 70.27Z" class="" fill="#1f242e" fill-opacity="1"></path><path d="M208 75.56C212.8 75.61 218.9 79.13 217 85.6C213 92.5 206.7 97.77 199 100.4C191.6 102.9 184 104.8 177 102.3C174 100 164 92.9 162 98.9C160.8 114.2 163 111.9 151 116.7L151 92.3C161 88.4 172 87.8 182 93.6C190 97.8 201 95.1 206 87.8C207 81.3 198 83.3 194 84.5C191 76.2 201.8 76.07 207 75.6C207.3 75.57 207.6 75.56 208 75.56Z" class="" fill="#1f242e" fill-opacity="1"></path><path d="M308.5 80.02C307.6 80.03 306.7 80.16 305.7 80.38C303.3 80.99 301.5 82.55 300.6 85.05C299.6 87.47 299.8 89.79 301.2 91.93C302.6 94.15 304.5 95.66 307.2 96.71C310.1 97.86 312.6 98.12 315.2 97.44C317.7 96.88 319.5 95.32 320.4 92.9C321.4 90.4 321.2 88.08 319.7 85.89C318.3 83.75 316.2 82.12 313.3 80.97C311.7 80.31 310.1 80.01 308.5 80.02Z" class="" fill="#1f232e" fill-opacity="1"></path><path d="M337.4 90.17C336.3 90.22 335.2 90.44 334.2 90.82C331.5 91.99 329.7 93.78 328.8 96.21C327.8 98.71 327.9 101.3 329.2 103.8C330.4 106.4 332.8 108.4 336.4 109.9C339.3 111 342.2 111.2 345 110.5C347.8 109.7 349.7 107.8 350.8 104.9C351.9 102 351.9 99.37 350.3 96.89C348.8 94.42 346.6 92.52 343.7 91.38C341.4 90.48 339.3 90.09 337.4 90.17Z" class="" fill="#1f242e" fill-opacity="1"></path><path d="M242 144.9L55 149L127 341.9L242 144.9Z" class="" fill="#1f242e" fill-opacity="1"></path><path d="M270 144.9L385.4 341.9L456.6 149L270 144.9Z" class="" fill="#1f242e" fill-opacity="1"></path><path d="M256 152.4L139 352.6L373.1 352.6L256 152.4Z" class="" fill="#1f242e" fill-opacity="1"></path><path d="M372.6 168.8L391.8 211.3L399 208L403.1 217.2L396 220.4L402.3 234.4L391.9 239.1L385.6 225.1L355.4 238.7L351.5 230C352.9 220.8 355.9 202.2 360.4 174.3L362.2 173.5L363 173.2L366.1 171.7L372.6 168.8Z" class="" fill="#1f242e" fill-opacity="1"></path><path d="M146.7 180.9L148 180.9C150.9 180.9 153.5 181.4 155.8 182.5C162.7 185.7 166.5 190.9 167.5 197.8C168.4 204.7 166.5 213.1 161.8 222.9C157.1 232.6 151.8 239.4 146 243.2C140 247 133.7 247.3 126.9 244.2C121 241.4 117.5 237.5 116.3 232.3C115.1 227 115.4 222.6 117.2 218.8L126.8 223.2C125.9 224.9 125.7 227 126 229.5C126.3 232.1 127.9 234 131 235.5C134.1 236.9 137.1 236.8 140.2 235.3C143.3 233.9 146.5 230.1 149.9 224C150.4 223 151 221.9 151.6 220.7C149.8 221.9 148 222.7 146.1 223.3C142.9 224.2 139.5 223.8 135.8 222.1C131.5 220.1 128.3 216.6 126.3 211.5C124.2 206.5 124.8 200.8 127.9 194.3L128 194.2C129.1 191.9 130.4 189.8 132 188.2C133.4 186.5 135.1 185.1 136.8 184C139.9 182.1 143.2 181 146.7 180.9Z" class="" fill="#1f242e" fill-opacity="1"></path><path d="M52 186L52 359.2L114 353.5L52 186Z" class="" fill="#1f242e" fill-opacity="1"></path><path d="M460 186L398.1 353.5L460 359.2L460 186Z" class="" fill="#1f242e" fill-opacity="1"></path><path d="M368.1 186.6C366.5 196.3 364.5 209.1 361.9 224.8L381.5 216L373.3 198.1L368.1 186.6Z" class="" fill="#1f242e" fill-opacity="1"></path><path d="M148.4 190.7C146.9 190.8 145.5 191.1 144.1 191.8C141.1 193.2 139 195.3 137.6 198.3C136 201.7 135.5 204.8 136.4 207.9C137.3 210.9 139.1 213 141.8 214.3C144.6 215.6 147.5 215.6 150.3 214.3C153.1 213 155.4 210.7 157.1 207.3C158.5 204.4 158.8 201.4 158.1 198.3C157.3 195.2 155.5 193 152.7 191.7C151.3 191 149.8 190.7 148.4 190.7Z" class="" fill="#1f242e" fill-opacity="1"></path><path d="M251.6 238.4L267.2 238.4L267.2 322.6L251.6 322.6L251.6 252.4C242.8 258.2 236.3 262 232.2 263.6L225.9 266.4L225.9 252.4L232.2 249.6C236.3 247.8 242.8 244.2 251.6 238.4Z" class="" fill="#1f242e" fill-opacity="1"></path><path d="M453.3 244.6L453.8 244.6C457.4 244.9 459.5 251.6 458.5 255.7C458.4 274.3 459.6 294.9 448.8 311C447.9 312.2 446.6 312.9 445.1 313.5C439.3 309.4 442.1 302.2 446.3 298C447.3 305.3 451.8 295.1 452.9 292.4C454.2 289.2 456.5 274.7 451.9 282.2C452.6 286.2 445.1 295.3 442.6 290.3C437.6 275.9 442.6 259.8 449.6 246.8C450.9 245.4 452.1 244.7 453.3 244.6Z" class="" fill="#1f242e" fill-opacity="1"></path><path d="M60 245.5C61 245.6 61 246.5 62 249.1L62 310.2C55 303.2 59 292.8 58 283.8C57 276.2 60 267.5 57 260.6C52 258.9 51 243.6 54 247.9C58 252.7 58 245.2 60 245.5Z" class="" fill="#1f242e" fill-opacity="1"></path><path d="M450.9 256.1C449.9 256.1 448.9 257.1 448.1 259.8C446.5 265.7 444.8 273.2 447.4 279.1C452.5 277.1 452.8 269.5 454 264.6C455.2 261.3 453.1 256.2 450.9 256.1Z" class="" fill="#1f242e" fill-opacity="1"></path><path d="M75 268.2C79 267.7 82 275.4 84 279C87.28 291.7 88.21 292.9 87 295.8C82 292.1 82.13 288.4 81.64 286.9C80.64 283.9 80 281.6 78 278.5C74.66 281.3 75 287.6 75 291.9C75 290.3 76 289.6 79 291.2C86 303.8 91 320.3 86 334.7L84 335.8C73 330 72 316.4 70 305.8C69 293.5 69 281.1 72 269.1C73 268.5 74 268.2 75 268.2Z" class="" fill="#1f242e" fill-opacity="1"></path><path d="M433.2 273C437.7 273.3 434 308.2 434 328L429.6 334.7L429.6 292.4C425 299.9 420.5 301.5 423.5 291.5C428.4 278.1 431.4 272.9 433.2 273Z" class="" fill="#1f242e" fill-opacity="1"></path><path d="M77 299.2C73 303.9 75 312 76 317.6C78 323.1 83 327.8 82 319.2C82 313.5 83 307.4 79 302.8C79 302.2 78 300.9 77 299.2Z" class="selected" fill="#1f242e" fill-opacity="1"></path><path d="M143 368.6L256 491.7L368.8 368.6L143 368.6Z" class="" fill="#1f242e" fill-opacity="1"></path><path d="M122 368.9L68 373.8L132 414.9C130 412.2 127 409.2 125 406.1C120 399.2 115 392.5 106 389.5C97 383 102 384.2 109 386.9C108 385.1 108 384.3 109 384.3C111 384.1 118 388.5 119 390.6L144 422.2L209 463.9L122 368.9Z" class="" fill="#1f242e" fill-opacity="1"></path><path d="M390.2 368.9L347.8 415.2C354.2 412.1 359.1 406.7 364.8 402.8C367.2 401.4 368.5 400.9 369.1 400.9C371.2 400.9 363.7 408 361.4 411.2C352 421 345.4 434.2 332.8 440.3L351.7 415.8C349.4 417.1 345.7 419 343.5 419.9L303.2 463.9L377.7 416.3C383.1 409.6 379.6 410.7 372 415.4L360.6 421.4C372 407.7 387.4 397.8 400.6 385.8C403.8 384.3 410.1 380.2 411.6 380.1C412.4 380 411.8 381.1 408.8 384.3L396.2 400.3C406.2 392.7 397.1 404.2 391.7 405.8C391 406.8 390.3 407.8 389.5 408.7L444 373.8L390.2 368.9Z" class="" fill="#1f242e" fill-opacity="1"></path><path d="M231.9 385.6C233.3 385.6 234.6 385.7 236 385.8L236 429.2L223 429.2L223 399.2C218 397.8 212 400.9 207 398.9C203 396 208 392.1 212 393C215 392.9 219 393.2 221 389.8C224.4 386.7 228 385.6 231.9 385.6Z" class="" fill="#1f242e" fill-opacity="1"></path><path d="M265 386.3C265 386.3 266 386.4 266 386.5C270 387.3 273 386.8 276 386.9L301.6 386.9C303.1 389.9 302.4 394.7 298.3 394.8C294.4 395.3 290.5 394.4 286.6 395C281.9 395.2 277 393.2 272 395.4C269 397.1 268 403.9 273 401.5C277 400.4 280.3 399.7 283.8 400.6C290.8 401.7 298.8 403.5 302.9 409.8C305 412.9 305.6 417.1 303.6 420.5C300 427 292 428.9 285.3 430.2C282.9 430.6 280.6 431.6 278 431.4C271 430.8 263 430.3 258 424.3C255 421.8 255 417.2 260 417.6C263 417.5 268 417.2 270 421.1C273 424.8 279 424.1 283 423.1C286.6 422.6 290.5 420.5 290.6 416.4C291.2 412.2 287.5 409.2 283.7 408.6C278 406.3 272 410 266 410.4C263 411.5 257 410.9 257 406C258 401.8 260 397.9 260 393.5C260 390.5 262 386.5 265 386.3Z" class="" fill="#1f242e" fill-opacity="1"></path><path d="M398.5 391.3C398.3 391.1 391.5 397.1 388.6 399.4L372.8 412.5C381.4 408.1 389.3 402.9 395.1 395.1C397.7 392.5 398.6 391.4 398.5 391.3Z" class="" fill="#1f2424" fill-opacity="1"></path><path d="M151 405.5C154 405.5 159 410.1 161 412.5L187 443.6C179 441.5 174 436.5 169 429.9C163 422.6 158 413.3 148 410.3C139 405.3 143 403.9 150 408.1C150 406.2 150 405.5 151 405.5Z" class="" fill="#1f242e" fill-opacity="1"></path></g></g><g font-family="Arial, Helvetica, sans-serif" font-size="95" font-style="normal" font-weight="bold" text-anchor="middle" text-decoration=" rgba(0, 238, 255, 1)" class="" transform="translate(252,259)" style=""><g><text stroke="rgba(31, 36, 46, 1)" stroke-width="23.75"><tspan x="0" y="0">18</tspan></text><text fill="rgba(0, 238, 255, 1)"><tspan x="0" y="0">18</tspan></text></g></g></svg>