<svg xmlns="http://www.w3.org/2000/svg" viewBox="0 0 512 512" style="height: 256px; width: 256px;"><defs><filter id="shadow-1" height="300%" width="300%" x="-100%" y="-100%"><feFlood flood-color="rgba(255, 255, 255, 1)" result="flood"></feFlood><feComposite in="flood" in2="SourceGraphic" operator="atop" result="composite"></feComposite><feGaussianBlur in="composite" stdDeviation="15" result="blur"></feGaussianBlur><feOffset dx="0" dy="0" result="offset"></feOffset><feComposite in="SourceGraphic" in2="offset" operator="over"></feComposite></filter><filter id="shadow-4" height="300%" width="300%" x="-100%" y="-100%"><feFlood flood-color="rgba(255, 255, 255, 1)" result="flood"></feFlood><feComposite in="flood" in2="SourceGraphic" operator="atop" result="composite"></feComposite><feGaussianBlur in="composite" stdDeviation="15" result="blur"></feGaussianBlur><feOffset dx="0" dy="0" result="offset"></feOffset><feComposite in="SourceGraphic" in2="offset" operator="over"></feComposite></filter></defs><g class="" transform="translate(0,0)" style=""><path d="M256 33.78C205.2 119.6 154.2 177 103.7 228.7c101.3-39.2 203.3-39.2 304.6 0C357.8 177 306.8 119.6 256 33.78zm0 183.02c-10.4 0-20.8.5-31.3 1.4 6.5 104.2-48.4 216.9-158.29 268.8H445.6c-109.9-51.9-164.8-164.6-158.3-268.8-10.5-.9-20.9-1.4-31.3-1.4z" fill="#ffffff" fill-opacity="0" stroke="#00eeff" stroke-opacity="1" stroke-width="5" transform="translate(512, 0) scale(-1, 1) rotate(0, 256, 256) skewX(0) skewY(0)" filter="url(#shadow-1)"></path></g><g font-family="Arial, Helvetica, sans-serif" font-size="80" font-style="normal" font-weight="bold" text-anchor="middle" text-decoration=" rgba(51, 58, 72, 0.5)" class="" transform="translate(259,457)" style=""><g><text stroke="rgba(0, 238, 255, 1)" stroke-width="20"><tspan x="0" y="0">XP</tspan></text><text fill="rgba(51, 58, 72, 0.5)"><tspan x="0" y="0">XP</tspan></text></g></g></svg>