<svg xmlns="http://www.w3.org/2000/svg" viewBox="0 0 512 512" style="height: 256px; width: 256px;"><defs><filter id="shadow-1" height="300%" width="300%" x="-100%" y="-100%"><feFlood flood-color="rgba(255, 255, 255, 1)" result="flood"></feFlood><feComposite in="flood" in2="SourceGraphic" operator="atop" result="composite"></feComposite><feGaussianBlur in="composite" stdDeviation="15" result="blur"></feGaussianBlur><feOffset dx="0" dy="0" result="offset"></feOffset><feComposite in="SourceGraphic" in2="offset" operator="over"></feComposite></filter><filter id="shadow-4" height="300%" width="300%" x="-100%" y="-100%"><feFlood flood-color="rgba(255, 255, 255, 1)" result="flood"></feFlood><feComposite in="flood" in2="SourceGraphic" operator="atop" result="composite"></feComposite><feGaussianBlur in="composite" stdDeviation="15" result="blur"></feGaussianBlur><feOffset dx="0" dy="0" result="offset"></feOffset><feComposite in="SourceGraphic" in2="offset" operator="over"></feComposite></filter></defs><g class="" transform="translate(0,0)" style=""><path d="M39.557 19 323.44 273h149.003L188.56 19H39.558zM25 30.13v25.847L311 311.87v-25.846L25 30.13zm64 107.263v34.584L375 427.87v-84.843l-64-13.002L89 137.393zM77.555 185.89l-42.9 10.723 287.79 257.498 42.9-10.723L77.556 185.89zM25 212.13v23.847L311 491.87v-23.847L25 212.13zM329 291v21.973l64 16v126.054l-64 16V493h158v-21.973l-64-16V328.973l64-16V291H329zm112 135.865v14.108l21.88 5.47L441 426.865z" fill="#ffffff" fill-opacity="0" stroke="#00eeff" stroke-opacity="1" stroke-width="5" transform="translate(512, 0) scale(-1, 1) rotate(0, 256, 256) skewX(0) skewY(0)" filter="url(#shadow-1)"></path></g></svg>