<svg xmlns="http://www.w3.org/2000/svg" viewBox="0 0 512 512" style="height: 256px; width: 256px;"><defs><filter id="shadow-1" height="300%" width="300%" x="-100%" y="-100%"><feFlood flood-color="rgba(255, 255, 255, 1)" result="flood"></feFlood><feComposite in="flood" in2="SourceGraphic" operator="atop" result="composite"></feComposite><feGaussianBlur in="composite" stdDeviation="15" result="blur"></feGaussianBlur><feOffset dx="0" dy="0" result="offset"></feOffset><feComposite in="SourceGraphic" in2="offset" operator="over"></feComposite></filter><filter id="shadow-4" height="300%" width="300%" x="-100%" y="-100%"><feFlood flood-color="rgba(255, 255, 255, 1)" result="flood"></feFlood><feComposite in="flood" in2="SourceGraphic" operator="atop" result="composite"></feComposite><feGaussianBlur in="composite" stdDeviation="15" result="blur"></feGaussianBlur><feOffset dx="0" dy="0" result="offset"></feOffset><feComposite in="SourceGraphic" in2="offset" operator="over"></feComposite></filter></defs><g class="" transform="translate(0,0)" style=""><path d="m209.875 44.156-182 106.47 119.625 54.31 148.344 11.72 41.97-24.312 17.342 11.562L309 230.656V379.53l53.563-14.624-64.625 51.97-110.875-59.626-2.157-1.53-71.28 6.56 75.936-31.967 100.75 52.125v-147.5l-145.906-11.5-1.625-.125-1.5-.688-121.093-55V391.47L44 423.186l82 20.97 21.875-21.282 11.156 29.72 131.282 33.592V434l4.25 2.28 5.47 2.94 4.812-3.908L309 431.97v52.155L491.375 377.78v-96.405L466.78 269.47l24.595-38.75V125l-90.25 52.28-1.094 34.095-88-58.688 84.97 5.375L476.5 112 291.562 64.937l1.625.563-64.406 5.78 5.345-20.936-24.25-6.188z" fill="#ffffff" fill-opacity="0" stroke="#00eeff" stroke-opacity="1" stroke-width="5" filter="url(#shadow-1)"></path></g></svg>