<svg xmlns="http://www.w3.org/2000/svg" viewBox="0 0 512 512" style="height: 256px; width: 256px;"><defs><filter id="shadow-1" height="300%" width="300%" x="-100%" y="-100%"><feFlood flood-color="rgba(255, 255, 255, 1)" result="flood"></feFlood><feComposite in="flood" in2="SourceGraphic" operator="atop" result="composite"></feComposite><feGaussianBlur in="composite" stdDeviation="15" result="blur"></feGaussianBlur><feOffset dx="0" dy="0" result="offset"></feOffset><feComposite in="SourceGraphic" in2="offset" operator="over"></feComposite></filter><filter id="shadow-4" height="300%" width="300%" x="-100%" y="-100%"><feFlood flood-color="rgba(255, 255, 255, 1)" result="flood"></feFlood><feComposite in="flood" in2="SourceGraphic" operator="atop" result="composite"></feComposite><feGaussianBlur in="composite" stdDeviation="15" result="blur"></feGaussianBlur><feOffset dx="0" dy="0" result="offset"></feOffset><feComposite in="SourceGraphic" in2="offset" operator="over"></feComposite></filter></defs><g class="" transform="translate(0,0)" style=""><path d="m92.906 94.813 60.438 79.75 78.125-79.75H92.905zm189.25 0L359.25 173.5l58.688-78.688H282.155zm-25.344.843-84.718 86.47H341.53l-84.717-86.47zm177.907 7.906-58.626 78.563H494.53l-59.81-78.563zm-358.064.75-57.78 77.813h116.78l-59-77.813zm-58.5 96.5L226.562 429.22l-83.218-228.41H18.156zm145.063 0 93.593 256.844 93.593-256.844H163.22zm207.06 0L287.064 429.22l208.405-228.41H370.28z" fill="#ffffff" fill-opacity="0" stroke="#00eeff" stroke-opacity="1" stroke-width="5" transform="translate(512, 0) scale(-1, 1) rotate(0, 256, 256) skewX(0) skewY(0)" filter="url(#shadow-1)"></path></g></svg>