<svg xmlns="http://www.w3.org/2000/svg" viewBox="0 0 512 512" style="height: 256px; width: 256px;"><defs><filter id="shadow-1" height="300%" width="300%" x="-100%" y="-100%"><feFlood flood-color="rgba(255, 255, 255, 1)" result="flood"></feFlood><feComposite in="flood" in2="SourceGraphic" operator="atop" result="composite"></feComposite><feGaussianBlur in="composite" stdDeviation="15" result="blur"></feGaussianBlur><feOffset dx="0" dy="0" result="offset"></feOffset><feComposite in="SourceGraphic" in2="offset" operator="over"></feComposite></filter><filter id="shadow-4" height="300%" width="300%" x="-100%" y="-100%"><feFlood flood-color="rgba(255, 255, 255, 1)" result="flood"></feFlood><feComposite in="flood" in2="SourceGraphic" operator="atop" result="composite"></feComposite><feGaussianBlur in="composite" stdDeviation="15" result="blur"></feGaussianBlur><feOffset dx="0" dy="0" result="offset"></feOffset><feComposite in="SourceGraphic" in2="offset" operator="over"></feComposite></filter></defs><g class="" transform="translate(0,0)" style=""><path d="m318 123.645-61.5 35.7-61.76-35.7 61.76-35.7zm93.68 54.19-61.76 35.7 61.76 35.7 61.5-35.7zm-294.39 80.64 61.76 35.7 61.5-35.7-61.5-35.7zm139.52-80.57-61.76 35.7 61.76 35.7 61.5-35.7zM31 298.365l62 35.69v-71l-62-35.65v71zm373-26-62 35.69v70.94l62-35.66v-70.97zm-225.11-139.4-61.76 35.7 61.76 35.7 61.5-35.7zM109 343.305l62 35.69v-70.94l-62-35.69v71zm225.41-120.45-61.76 35.7 61.76 35.7 61.5-35.7zM249 353.055l-62-35.7v71l62 35.7v-71zm77-35.67-61 35.67v70.94l61-35.66v-70.95zm8.07-184.5-61.76 35.7 61.76 35.7 61.5-35.7zm-232.6 44.95-61.77 35.7 61.76 35.7 61.5-35.7zM481 227.565l-61 35.66v70.94l61-35.66v-70.94zm-286.11 75.93 61.76 35.7 61.5-35.7-61.5-35.7z" fill="#ffffff" fill-opacity="0" stroke="#00eeff" stroke-opacity="1" stroke-width="5" filter="url(#shadow-1)"></path></g></svg>